<?xml version="1.0" standalone="no"?>
<!DOCTYPE svg PUBLIC "-//W3C//DTD SVG 20010904//EN"
 "http://www.w3.org/TR/2001/REC-SVG-20010904/DTD/svg10.dtd">
<svg version="1.0" xmlns="http://www.w3.org/2000/svg"
 width="256.000000pt" height="256.000000pt" viewBox="0 0 256.000000 256.000000"
 preserveAspectRatio="xMidYMid meet">
<metadata>
Created by potrace 1.14, written by Peter Selinger 2001-2017
</metadata>
<g transform="translate(0.000000,256.000000) scale(0.100000,-0.100000)"
fill="#000000" stroke="none">
<path d="M1943 2389 c-34 -13 -51 -48 -57 -124 -16 -189 -76 -242 -308 -270
-238 -30 -350 -148 -373 -394 -3 -30 -8 -57 -11 -60 -2 -3 -219 -6 -481 -8
l-476 -3 -52 -24 c-90 -41 -156 -122 -172 -211 -4 -16 -6 -228 -6 -470 l0
-440 26 -51 c31 -62 87 -117 147 -146 l45 -22 1055 0 1055 -1 46 23 c61 30
121 89 149 149 23 48 23 49 24 508 l1 460 -25 50 c-30 62 -91 124 -150 152
-50 23 -59 24 -690 27 l-325 1 2 64 c3 144 65 213 213 237 14 3 36 7 50 9 14
3 43 8 65 11 184 27 291 121 331 289 18 81 21 183 5 213 -13 25 -59 42 -88 31z
m-1452 -1166 c1 -22 1 -142 0 -164 -1 -14 -15 -17 -95 -17 l-94 -1 -4 62 c-2
34 -2 79 0 100 l3 37 95 0 c82 0 94 -2 95 -17z m297 -83 l3 -96 -99 -2 -99 -2
-1 100 -1 101 97 -3 97 -3 3 -95z m293 93 c1 -11 1 -154 0 -174 -1 -14 -16
-16 -98 -17 l-98 0 2 96 c1 54 2 98 2 100 2 6 191 1 192 -5z m295 -90 l-1 -98
-95 0 -95 0 -3 84 c-2 46 -1 90 2 97 4 11 30 14 99 14 l95 0 -2 -97z m297 2
c-1 -49 -2 -93 -2 -97 -1 -4 -45 -6 -98 -5 l-98 2 0 85 c-1 47 1 91 3 98 3 9
29 12 100 10 l97 -3 -2 -90z m296 -4 l-1 -99 -99 1 -99 1 0 92 c0 50 3 94 7
97 3 4 49 7 100 7 l94 0 -2 -99z m291 -1 l0 -99 -95 1 -95 1 0 98 0 99 95 0
95 0 0 -100z m-1669 -204 c3 -49 0 -178 -4 -182 -5 -6 -176 -8 -182 -3 -3 4
-7 106 -6 166 l1 32 95 -1 c63 0 95 -4 96 -12z m295 -88 l1 -97 -31 -3 c-17
-2 -62 -1 -99 0 l-68 4 2 99 3 98 95 -2 96 -2 1 -97z m294 1 l0 -99 -52 -1
c-29 0 -72 -1 -96 -2 -23 -1 -43 3 -43 8 -1 6 -2 51 -3 101 l-1 92 98 0 97 0
0 -99z m295 -1 l0 -98 -97 0 -98 0 0 99 0 99 97 -1 98 -2 0 -97z m295 1 l0
-99 -99 0 -98 0 2 98 c1 53 3 98 4 99 0 0 44 1 96 1 l95 -1 0 -98z m293 86 c3
-9 1 -158 -2 -177 0 -5 -43 -8 -95 -8 -109 0 -103 -8 -98 115 l3 83 95 -2 c53
0 95 -5 97 -11z m-1588 -284 c18 -1 20 -7 18 -83 -1 -46 -2 -90 -2 -98 -1 -13
-18 -16 -96 -16 l-95 -1 0 98 0 98 33 3 c28 3 76 2 142 -1z m1140 -1 l351 0
-1 -97 0 -98 -685 0 -685 0 0 95 0 95 90 5 c50 3 200 4 335 3 135 -1 403 -2
595 -3z m643 -98 l-3 -97 -92 -1 -93 -2 0 99 0 98 33 3 c17 2 60 1 95 0 l63
-4 -3 -96z"/>
</g>
</svg>
